<?plantuml 1.2026.1?><svg xmlns="http://www.w3.org/2000/svg" xmlns:xlink="http://www.w3.org/1999/xlink" contentStyleType="text/css" data-diagram-type="DESCRIPTION" height="278px" preserveAspectRatio="none" style="width:736px;height:278px;background:#FFFFFF;" version="1.1" viewBox="0 0 736 278" width="736px" zoomAndPan="magnify"><defs/><g><!--cluster Spieler-PC--><g class="cluster" data-qualified-name="Spieler-PC" data-source-line="7" id="ent0002"><rect fill="#F5F5F5" height="103.6" rx="2.5" ry="2.5" style="stroke:#181818;stroke-width:1;" width="723" x="7" y="7"/><text fill="#000000" font-family="Arial" font-size="14" font-weight="bold" lengthAdjust="spacing" textLength="81.9424" x="327.5288" y="21.9951">Spieler-PC</text></g><!--cluster Externe Dienste--><g class="cluster" data-qualified-name="Externe Dienste" data-source-line="13" id="ent0006"><path d="M215.5949,169.0233 C219.3947,162.3599 223.938,160.377 229.4658,167.2529 C234.2794,158.4598 241.6977,159.12 245.9706,167.7646 C249.7886,159.773 256.8881,160.289 260.9869,167.4871 C263.9655,161.0895 270.4919,160.3445 274.4135,166.4766 C277.7303,159.8323 284.0994,158.753 289.1554,164.3887 C294.5471,156.1743 300.3694,156.3521 305.8162,164.332 C309.5123,159.0251 315.26,157.1642 318.912,164.3782 C323.8163,156.5161 330.592,156.7507 335.4815,164.3941 C339.6414,156.0679 345.2409,155.9268 350.2878,163.5718 C356.2202,158.7346 361.6224,159.5588 364.7899,166.8719 C369.0458,160.2018 374.9427,160.0189 378.8516,167.2236 C384.2893,159.0183 389.3588,159.8611 394.3664,167.6411 C399.5139,162.1653 405.1977,161.242 408.4838,169.5478 C417.2352,161.6016 425.995,162.3326 430,174.6 C431.5329,173.9145 432.7143,174.744 432.6957,176.3922 C441.4691,180.5067 442.633,186.3733 435.8161,193.3557 C445.634,197.4274 448.7839,205.6333 440.6532,213.9257 C448.5488,221.5563 445.5966,230.7644 434.7644,232.4374 C443.0733,246.1986 436.8208,252.8712 423,255.19 C424.0382,254.446 424.7352,254.687 425.1483,255.8824 C421.3379,264.0389 416.4773,263.5258 410.4469,258.3259 C404.6436,267.5378 398.8817,267.4564 393.0774,258.3269 C390.0294,265.3484 384.3876,264.539 380.1723,259.5848 C376.1116,267.0245 368.7486,267.9522 364.5719,259.7001 C362.2439,268.303 355.6649,269.2319 350.0197,262.9413 C346.28,270.3221 341.336,270.3918 335.8306,264.8853 C330.3016,271.2561 324.9326,270.9533 320.3959,263.7565 C315.1389,271.3548 308.863,270.0753 304.7752,262.549 C300.8104,268.9213 295.164,268.8215 290.8045,263.0011 C285.5654,270.4757 278.062,268.9215 275.2153,260.6348 C270.6876,266.776 263.8048,266.9491 259.822,259.9944 C254.2272,267.3792 249.2106,265.8919 245.2078,258.4276 C240.3243,265.0164 234.568,265.7658 229.3391,258.8329 C216.1618,268.0979 208.9489,261.3554 206,248.19 C206.3095,247.752 206.654,247.7277 206.9357,248.218 C199.0984,243.4614 197.3276,238.2048 205.4269,231.9684 C194.8287,228.458 192.2927,220.3829 200.8369,212.3856 C192.4718,205.9229 192.6064,197.8443 203.2457,193.8514 C192.9156,182.2271 196.9753,169.4317 213,167.6 C214.6064,166.729 215.4752,167.1838 215.5949,169.0233" fill="#F0F0F0" style="stroke:#181818;stroke-width:1;"/><text fill="#000000" font-family="Arial" font-size="14" font-weight="bold" lengthAdjust="spacing" textLength="126.4238" x="254.7881" y="185.5951">Externe Dienste</text></g><!--entity lol--><g class="entity" data-qualified-name="Spieler-PC.lol" data-source-line="8" id="ent0003"><rect fill="#F1F1F1" height="52.5938" rx="2.5" ry="2.5" style="stroke:#888888;stroke-width:0.5;" width="89.1455" x="23.43" y="42"/><text fill="#000000" font-family="Arial" font-size="14" lengthAdjust="spacing" textLength="69.1455" x="33.43" y="64.9951">LoL Client</text><text fill="#000000" font-family="Arial" font-size="14" lengthAdjust="spacing" textLength="45.0898" x="33.43" y="81.292">(Spiel)</text></g><!--entity bridge--><g class="entity" data-qualified-name="Spieler-PC.bridge" data-source-line="9" id="ent0004"><rect fill="#F1F1F1" height="52.5938" rx="2.5" ry="2.5" style="stroke:#888888;stroke-width:0.5;" width="171.6553" x="232.17" y="42"/><text fill="#000000" font-family="Arial" font-size="14" lengthAdjust="spacing" textLength="122.1924" x="242.17" y="64.9951">LoL Coach Bridge</text><text fill="#000000" font-family="Arial" font-size="14" lengthAdjust="spacing" textLength="151.6553" x="242.17" y="81.292">(Node.js / TypeScript)</text></g><!--entity app--><g class="entity" data-qualified-name="Spieler-PC.app" data-source-line="10" id="ent0005"><rect fill="#F1F1F1" height="52.5938" rx="2.5" ry="2.5" style="stroke:#888888;stroke-width:0.5;" width="160.1504" x="553.92" y="42"/><text fill="#000000" font-family="Arial" font-size="14" lengthAdjust="spacing" textLength="140.1504" x="563.92" y="64.9951">Flutter Desktop App</text><text fill="#000000" font-family="Arial" font-size="14" lengthAdjust="spacing" textLength="78.8867" x="563.92" y="81.292">(Spieler-UI)</text></g><!--entity llm--><g class="entity" data-qualified-name="Externe Dienste.llm" data-source-line="14" id="ent0007"><rect fill="#F1F1F1" height="52.5938" rx="2.5" ry="2.5" style="stroke:#888888;stroke-width:0.5;" width="207.626" x="214.19" y="194.6"/><text fill="#000000" font-family="Arial" font-size="14" lengthAdjust="spacing" textLength="62.1729" x="224.19" y="217.5951">LLM-APIs</text><text fill="#000000" font-family="Arial" font-size="14" lengthAdjust="spacing" textLength="187.626" x="224.19" y="233.892">(Claude / OpenAI / Gemini)</text></g><!--link lol to bridge--><g class="link" data-entity-1="ent0003" data-entity-2="ent0004" data-link-type="dependency" data-source-line="17" id="lnk8"><path d="M112.98,68.3 C146.02,68.3 185.92,68.3 225.92,68.3" fill="none" id="lol-to-bridge" style="stroke:#444444;stroke-width:1;"/><polygon fill="#444444" points="231.92,68.3,222.92,64.3,226.92,68.3,222.92,72.3,231.92,68.3" style="stroke:#444444;stroke-width:1;"/><text fill="#000000" font-family="Arial" font-size="13" lengthAdjust="spacing" textLength="83.3447" x="130.87" y="46.3669">HTTPS :2999</text><text fill="#000000" font-family="Arial" font-size="13" lengthAdjust="spacing" textLength="62.8545" x="141.1151" y="61.4997">1s-Polling</text></g><!--link bridge to app--><g class="link" data-entity-1="ent0004" data-entity-2="ent0005" data-link-type="dependency" data-source-line="18" id="lnk9"><path d="M403.93,68.3 C450.54,68.3 501.79,68.3 547.52,68.3" fill="none" id="bridge-to-app" style="stroke:#444444;stroke-width:1;"/><polygon fill="#444444" points="553.52,68.3,544.52,64.3,548.52,68.3,544.52,72.3,553.52,68.3" style="stroke:#444444;stroke-width:1;"/><text fill="#000000" font-family="Arial" font-size="13" lengthAdjust="spacing" textLength="114.6768" x="421.88" y="61.3669">WebSocket :8765</text></g><!--link bridge to llm--><g class="link" data-entity-1="ent0004" data-entity-2="ent0007" data-link-type="dependency" data-source-line="19" id="lnk10"><path d="M318,94.85 C318,122.54 318,160.48 318,188.22" fill="none" id="bridge-to-llm" style="stroke:#444444;stroke-width:1;"/><polygon fill="#444444" points="318,194.22,322,185.22,318,189.22,314,185.22,318,194.22" style="stroke:#444444;stroke-width:1;"/><text fill="#000000" font-family="Arial" font-size="13" lengthAdjust="spacing" textLength="108.71" x="319" y="139.6669">HTTPS (optional)</text></g><?plantuml-src RP1FJy904CNl-oaczOA7-Y-YmC6a554In2R5UE6oj6DPkztPRBT1OlpkRaij69svR3A_z-RDbhbGcXjUG4A59eNAndOd4GmcbgjC8YixPCsJF3DKgJGaIGPEfaqT4Ic-yKhQAIcxu0L2O0INH_F06DgsukkcZePTWZ6P54sB3PfYh0i4Ngm5IZH-57ekGxzk-6HmC01lJdC8fN3lbUer_Aa7l0H9yX-GUBA1iH5fXWvVK8fdxoMSmtAdCKwCq7QlNZV8RuEfhAn50nCiSqiQ0gr_Lhg8BxEzaclDlXXB95KfUFSVJg4G9YvWQR6-ugBkFrVCd_mWcfNEC9IyIj5bUjQeWfbxF60Xb6ZFaaLjxwu3tuXiO_sxDYoCm7jSBgCOHbV3uN2bBai_8Yc5oZpM8ft4fQpvLrp7bEHeOJIulUaVk9Isoc5ksy6sHzeAKjnzy3S0?></g></svg>