<?plantuml 1.2026.1?><svg xmlns="http://www.w3.org/2000/svg" xmlns:xlink="http://www.w3.org/1999/xlink" contentStyleType="text/css" data-diagram-type="SEQUENCE" height="403px" preserveAspectRatio="none" style="width:453px;height:403px;background:#FFFFFF;" version="1.1" viewBox="0 0 453 403" width="453px" zoomAndPan="magnify"><defs/><g><g class="participant-lifeline" data-entity-uid="part1" data-qualified-name="app" id="part1-lifeline"><g><title>Flutter App</title><rect fill="#000000" fill-opacity="0.00000" height="138.5313" width="8" x="46.9819" y="36.2969"/><line style="stroke:#181818;stroke-width:0.5;stroke-dasharray:5,5;" x1="50" x2="50" y1="36.2969" y2="174.8281"/></g><line style="stroke:#181818;stroke-width:0.5;stroke-dasharray:1,4;" x1="50" x2="50" y1="174.8281" y2="215.6328"/><g><title>Flutter App</title><rect fill="#000000" fill-opacity="0.00000" height="152.5313" width="8" x="46.9819" y="215.6328"/><line style="stroke:#181818;stroke-width:0.5;stroke-dasharray:5,5;" x1="50" x2="50" y1="215.6328" y2="368.1641"/></g></g><g class="participant-lifeline" data-entity-uid="part2" data-qualified-name="ws" id="part2-lifeline"><g><title>WsService</title><rect fill="#000000" fill-opacity="0.00000" height="138.5313" width="8" x="206.1489" y="36.2969"/><line style="stroke:#181818;stroke-width:0.5;stroke-dasharray:5,5;" x1="209.71" x2="209.71" y1="36.2969" y2="174.8281"/></g><line style="stroke:#181818;stroke-width:0.5;stroke-dasharray:1,4;" x1="209.71" x2="209.71" y1="174.8281" y2="215.6328"/><g><title>WsService</title><rect fill="#000000" fill-opacity="0.00000" height="152.5313" width="8" x="206.1489" y="215.6328"/><line style="stroke:#181818;stroke-width:0.5;stroke-dasharray:5,5;" x1="209.71" x2="209.71" y1="215.6328" y2="368.1641"/></g></g><g class="participant participant-head" data-entity-uid="part1" data-qualified-name="app" id="part1-head"><rect fill="#E2E2F0" height="30.2969" rx="2.5" ry="2.5" style="stroke:#888888;stroke-width:0.5;" width="91.9639" x="5" y="5"/><text fill="#000000" font-family="Arial" font-size="14" lengthAdjust="spacing" textLength="77.9639" x="12" y="24.9951">Flutter App</text></g><g class="participant participant-tail" data-entity-uid="part1" data-qualified-name="app" id="part1-tail"><rect fill="#E2E2F0" height="30.2969" rx="2.5" ry="2.5" style="stroke:#888888;stroke-width:0.5;" width="91.9639" x="5" y="367.1641"/><text fill="#000000" font-family="Arial" font-size="14" lengthAdjust="spacing" textLength="77.9639" x="12" y="387.1592">Flutter App</text></g><g class="participant participant-head" data-entity-uid="part2" data-qualified-name="ws" id="part2-head"><rect fill="#E2E2F0" height="30.2969" rx="2.5" ry="2.5" style="stroke:#888888;stroke-width:0.5;" width="86.8779" x="166.71" y="5"/><text fill="#000000" font-family="Arial" font-size="14" lengthAdjust="spacing" textLength="72.8779" x="173.71" y="24.9951">WsService</text></g><g class="participant participant-tail" data-entity-uid="part2" data-qualified-name="ws" id="part2-tail"><rect fill="#E2E2F0" height="30.2969" rx="2.5" ry="2.5" style="stroke:#888888;stroke-width:0.5;" width="86.8779" x="166.71" y="367.1641"/><text fill="#000000" font-family="Arial" font-size="14" lengthAdjust="spacing" textLength="72.8779" x="173.71" y="387.1592">WsService</text></g><g class="message" data-entity-1="part2" data-entity-2="part2" id="msg1"><line style="stroke:#181818;stroke-width:1.5;" x1="210.1489" x2="252.1489" y1="82.5625" y2="82.5625"/><line style="stroke:#181818;stroke-width:1.5;" x1="252.1489" x2="252.1489" y1="82.5625" y2="95.5625"/><line style="stroke:#181818;stroke-width:1.5;" x1="211.1489" x2="252.1489" y1="95.5625" y2="95.5625"/><polygon fill="#181818" points="221.1489,91.5625,211.1489,95.5625,221.1489,99.5625,217.1489,95.5625" style="stroke:#181818;stroke-width:1;"/><text fill="#000000" font-family="Arial" font-size="13" lengthAdjust="spacing" textLength="176.7314" x="217.1489" y="62.3638">stream schlie&#223;t unerwartet</text><text fill="#000000" font-family="Arial" font-size="13" lengthAdjust="spacing" textLength="142.6001" x="217.1489" y="77.4966">_onDone() aufgerufen</text></g><g class="message" data-entity-1="part2" data-entity-2="part1" id="msg2"><polygon fill="#181818" points="61.9819,120.6953,51.9819,124.6953,61.9819,128.6953,57.9819,124.6953" style="stroke:#181818;stroke-width:1;"/><line style="stroke:#181818;stroke-width:1.5;stroke-dasharray:2,2;" x1="55.9819" x2="209.1489" y1="124.6953" y2="124.6953"/><text fill="#000000" font-family="Arial" font-size="13" lengthAdjust="spacing" textLength="135.167" x="67.9819" y="119.6294">status: disconnected</text></g><g class="message" data-entity-1="part2" data-entity-2="part2" id="msg3"><line style="stroke:#181818;stroke-width:1.5;" x1="210.1489" x2="252.1489" y1="153.8281" y2="153.8281"/><line style="stroke:#181818;stroke-width:1.5;" x1="252.1489" x2="252.1489" y1="153.8281" y2="166.8281"/><line style="stroke:#181818;stroke-width:1.5;" x1="211.1489" x2="252.1489" y1="166.8281" y2="166.8281"/><polygon fill="#181818" points="221.1489,162.8281,211.1489,166.8281,221.1489,170.8281,217.1489,166.8281" style="stroke:#181818;stroke-width:1;"/><text fill="#000000" font-family="Arial" font-size="13" lengthAdjust="spacing" textLength="229.7915" x="217.1489" y="148.7622">_scheduleReconnect() &#8594; Timer(1 s)</text></g><text fill="#000000" font-family="Arial" font-size="11" lengthAdjust="spacing" textLength="94.6494" x="83.2407" y="199.0386">1 Sekunde Pause</text><g class="message" data-entity-1="part2" data-entity-2="part2" id="msg4"><line style="stroke:#181818;stroke-width:1.5;" x1="210.1489" x2="252.1489" y1="236.7656" y2="236.7656"/><line style="stroke:#181818;stroke-width:1.5;" x1="252.1489" x2="252.1489" y1="236.7656" y2="249.7656"/><line style="stroke:#181818;stroke-width:1.5;" x1="211.1489" x2="252.1489" y1="249.7656" y2="249.7656"/><polygon fill="#181818" points="221.1489,245.7656,211.1489,249.7656,221.1489,253.7656,217.1489,249.7656" style="stroke:#181818;stroke-width:1;"/><text fill="#000000" font-family="Arial" font-size="13" lengthAdjust="spacing" textLength="224.5547" x="217.1489" y="231.6997">_doConnect() &#8594; WebSocket &#246;ffnen</text></g><g class="message" data-entity-1="part2" data-entity-2="part1" id="msg5"><polygon fill="#181818" points="61.9819,274.8984,51.9819,278.8984,61.9819,282.8984,57.9819,278.8984" style="stroke:#181818;stroke-width:1;"/><line style="stroke:#181818;stroke-width:1.5;stroke-dasharray:2,2;" x1="55.9819" x2="209.1489" y1="278.8984" y2="278.8984"/><text fill="#000000" font-family="Arial" font-size="13" lengthAdjust="spacing" textLength="120.3833" x="67.9819" y="273.8325">status: connecting</text></g><g class="message" data-entity-1="part2" data-entity-2="part2" id="msg6"><line style="stroke:#181818;stroke-width:1.5;" x1="210.1489" x2="252.1489" y1="308.0313" y2="308.0313"/><line style="stroke:#181818;stroke-width:1.5;" x1="252.1489" x2="252.1489" y1="308.0313" y2="321.0313"/><line style="stroke:#181818;stroke-width:1.5;" x1="211.1489" x2="252.1489" y1="321.0313" y2="321.0313"/><polygon fill="#181818" points="221.1489,317.0313,211.1489,321.0313,221.1489,325.0313,217.1489,321.0313" style="stroke:#181818;stroke-width:1;"/><text fill="#000000" font-family="Arial" font-size="13" lengthAdjust="spacing" textLength="227.7412" x="217.1489" y="302.9653">CONNECTED-Nachricht empfangen</text></g><g class="message" data-entity-1="part2" data-entity-2="part1" id="msg7"><polygon fill="#181818" points="61.9819,346.1641,51.9819,350.1641,61.9819,354.1641,57.9819,350.1641" style="stroke:#181818;stroke-width:1;"/><line style="stroke:#181818;stroke-width:1.5;stroke-dasharray:2,2;" x1="55.9819" x2="209.1489" y1="350.1641" y2="350.1641"/><text fill="#000000" font-family="Arial" font-size="13" lengthAdjust="spacing" textLength="116.5303" x="67.9819" y="345.0981">status: connected</text></g><?plantuml-src XP11JiCm44NtESMeRDf58tM1XBf0Accx31Mjr0rIvTgJn4eoDcERt803S05kmGLw4qw2YIfe912p6it__ttBhjPa1OiMZaBM9Pj0AZEDORXQzvEuRuV2GeJ6hmtvNBG82zQYkT0TFWKaYGjcq-qgBMj2vs2MNlzYsWZsMcehoDyPLiZdrfj-aiJ-w31QDy5xP5XOEmBXG5WxDEpT5lbPI-pbpYL9vs1w6pUOW_ECNysoQZIUtZm4GkvY7FqZ7Gmj3U5u0Y8K9N8eaFfmJCUQFYvyS7DGsab3XDAZkiGV8XXLQF01ptg4VRoymawtoECPk4cIfkaCjbZ7tqNOYE0mNWOGPR91U8_7hP4rUZYz5mNzzQXpewRoafRTv_agswsMqrp8YhMiF61h2q7bFo1Kdm00?></g></svg>