<?plantuml 1.2026.1?><svg xmlns="http://www.w3.org/2000/svg" xmlns:xlink="http://www.w3.org/1999/xlink" contentStyleType="text/css" data-diagram-type="MINDMAP" height="928px" preserveAspectRatio="none" style="width:559px;height:928px;background:#FFFFFF;" version="1.1" viewBox="0 0 559 928" width="559px" zoomAndPan="magnify"><defs/><g><rect fill="#F1F1F1" height="36.2969" rx="12.5" ry="12.5" style="stroke:#181818;stroke-width:1.5;" width="75.8086" x="10" y="445.2969"/><text fill="#000000" font-family="sans-serif" font-size="14" lengthAdjust="spacing" textLength="55.8086" x="20" y="468.292">Qualit&#228;t</text><rect fill="#F1F1F1" height="36.2969" rx="12.5" ry="12.5" style="stroke:#181818;stroke-width:1.5;" width="127.0508" x="135.8086" y="100.7422"/><text fill="#000000" font-family="sans-serif" font-size="14" lengthAdjust="spacing" textLength="107.0508" x="145.8086" y="123.7373">Zuverl&#228;ssigkeit</text><rect fill="#F1F1F1" height="52.5938" rx="12.5" ry="12.5" style="stroke:#181818;stroke-width:1.5;" width="164.8672" x="312.8594" y="20"/><text fill="#000000" font-family="sans-serif" font-size="14" lengthAdjust="spacing" textLength="102.0469" x="322.8594" y="42.9951">Offline-Betrieb</text><text fill="#000000" font-family="sans-serif" font-size="14" lengthAdjust="spacing" textLength="144.8672" x="322.8594" y="59.292">(Heuristik ohne LLM)</text><path d="M262.8594,118.8906 L272.8594,118.8906 C287.8594,118.8906 287.8594,46.2969 302.8594,46.2969 L312.8594,46.2969" fill="none" style="stroke:#181818;stroke-width:1;"/><rect fill="#F1F1F1" height="52.5938" rx="12.5" ry="12.5" style="stroke:#181818;stroke-width:1.5;" width="220.792" x="312.8594" y="92.5938"/><text fill="#000000" font-family="sans-serif" font-size="14" lengthAdjust="spacing" textLength="172.3203" x="322.8594" y="115.5889">Retry bei Polling-Fehlern</text><text fill="#000000" font-family="sans-serif" font-size="14" lengthAdjust="spacing" textLength="200.792" x="322.8594" y="131.8857">(max. 3 aufeinanderfolgend)</text><path d="M262.8594,118.8906 L272.8594,118.8906 C287.8594,118.8906 287.8594,118.8906 302.8594,118.8906 L312.8594,118.8906" fill="none" style="stroke:#181818;stroke-width:1;"/><rect fill="#F1F1F1" height="52.5938" rx="12.5" ry="12.5" style="stroke:#181818;stroke-width:1.5;" width="188.6357" x="312.8594" y="165.1875"/><text fill="#000000" font-family="sans-serif" font-size="14" lengthAdjust="spacing" textLength="111.7061" x="322.8594" y="188.1826">Auto-Reconnect</text><text fill="#000000" font-family="sans-serif" font-size="14" lengthAdjust="spacing" textLength="168.6357" x="322.8594" y="204.4795">(exponentieller Backoff)</text><path d="M262.8594,118.8906 L272.8594,118.8906 C287.8594,118.8906 287.8594,191.4844 302.8594,191.4844 L312.8594,191.4844" fill="none" style="stroke:#181818;stroke-width:1;"/><path d="M85.8086,463.4453 L95.8086,463.4453 C110.8086,463.4453 110.8086,118.8906 125.8086,118.8906 L135.8086,118.8906" fill="none" style="stroke:#181818;stroke-width:1;"/><rect fill="#F1F1F1" height="36.2969" rx="12.5" ry="12.5" style="stroke:#181818;stroke-width:1.5;" width="79.7188" x="135.8086" y="294.0781"/><text fill="#000000" font-family="sans-serif" font-size="14" lengthAdjust="spacing" textLength="59.7188" x="145.8086" y="317.0732">Leistung</text><rect fill="#F1F1F1" height="36.2969" rx="12.5" ry="12.5" style="stroke:#181818;stroke-width:1.5;" width="226.7188" x="265.5273" y="237.7813"/><text fill="#000000" font-family="sans-serif" font-size="14" lengthAdjust="spacing" textLength="206.7188" x="275.5273" y="260.7764">Heuristik-Empfehlung &lt; 5 ms</text><path d="M215.5273,312.2266 L225.5273,312.2266 C240.5273,312.2266 240.5273,255.9297 255.5273,255.9297 L265.5273,255.9297" fill="none" style="stroke:#181818;stroke-width:1;"/><rect fill="#F1F1F1" height="36.2969" rx="12.5" ry="12.5" style="stroke:#181818;stroke-width:1.5;" width="161.5791" x="265.5273" y="294.0781"/><text fill="#000000" font-family="sans-serif" font-size="14" lengthAdjust="spacing" textLength="141.5791" x="275.5273" y="317.0732">LLM-Erkl&#228;rung &lt; 3 s</text><path d="M215.5273,312.2266 L225.5273,312.2266 C240.5273,312.2266 240.5273,312.2266 255.5273,312.2266 L265.5273,312.2266" fill="none" style="stroke:#181818;stroke-width:1;"/><rect fill="#F1F1F1" height="36.2969" rx="12.5" ry="12.5" style="stroke:#181818;stroke-width:1.5;" width="257.5078" x="265.5273" y="350.375"/><text fill="#000000" font-family="sans-serif" font-size="14" lengthAdjust="spacing" textLength="237.5078" x="275.5273" y="373.3701">WebSocket-Latenz &lt; 10 ms (LAN)</text><path d="M215.5273,312.2266 L225.5273,312.2266 C240.5273,312.2266 240.5273,368.5234 255.5273,368.5234 L265.5273,368.5234" fill="none" style="stroke:#181818;stroke-width:1;"/><path d="M85.8086,463.4453 L95.8086,463.4453 C110.8086,463.4453 110.8086,312.2266 125.8086,312.2266 L135.8086,312.2266" fill="none" style="stroke:#181818;stroke-width:1;"/><rect fill="#F1F1F1" height="36.2969" rx="12.5" ry="12.5" style="stroke:#181818;stroke-width:1.5;" width="90.5811" x="135.8086" y="442.9688"/><text fill="#000000" font-family="sans-serif" font-size="14" lengthAdjust="spacing" textLength="70.5811" x="145.8086" y="465.9639">Sicherheit</text><rect fill="#F1F1F1" height="36.2969" rx="12.5" ry="12.5" style="stroke:#181818;stroke-width:1.5;" width="195.9502" x="276.3896" y="406.6719"/><text fill="#000000" font-family="sans-serif" font-size="14" lengthAdjust="spacing" textLength="175.9502" x="286.3896" y="429.667">API-Keys im OS-Keychain</text><path d="M226.3896,461.1172 L236.3896,461.1172 C251.3896,461.1172 251.3896,424.8203 266.3896,424.8203 L276.3896,424.8203" fill="none" style="stroke:#181818;stroke-width:1;"/><rect fill="#F1F1F1" height="52.5938" rx="12.5" ry="12.5" style="stroke:#181818;stroke-width:1.5;" width="132.0273" x="276.3896" y="462.9688"/><text fill="#000000" font-family="sans-serif" font-size="14" lengthAdjust="spacing" textLength="79.1123" x="286.3896" y="485.9639">Keine CVEs</text><text fill="#000000" font-family="sans-serif" font-size="14" lengthAdjust="spacing" textLength="112.0273" x="286.3896" y="502.2607">(npm audit = 0)</text><path d="M226.3896,461.1172 L236.3896,461.1172 C251.3896,461.1172 251.3896,489.2656 266.3896,489.2656 L276.3896,489.2656" fill="none" style="stroke:#181818;stroke-width:1;"/><path d="M85.8086,463.4453 L95.8086,463.4453 C110.8086,463.4453 110.8086,461.1172 125.8086,461.1172 L135.8086,461.1172" fill="none" style="stroke:#181818;stroke-width:1;"/><rect fill="#F1F1F1" height="36.2969" rx="12.5" ry="12.5" style="stroke:#181818;stroke-width:1.5;" width="102.9883" x="135.8086" y="610.4844"/><text fill="#000000" font-family="sans-serif" font-size="14" lengthAdjust="spacing" textLength="82.9883" x="145.8086" y="633.4795">Wartbarkeit</text><rect fill="#F1F1F1" height="52.5938" rx="12.5" ry="12.5" style="stroke:#181818;stroke-width:1.5;" width="185.9014" x="288.7969" y="535.5625"/><text fill="#000000" font-family="sans-serif" font-size="14" lengthAdjust="spacing" textLength="160.1045" x="298.7969" y="558.5576">Champion-/Item-Daten</text><text fill="#000000" font-family="sans-serif" font-size="14" lengthAdjust="spacing" textLength="165.9014" x="298.7969" y="574.8545">ohne Code-Deployment</text><path d="M238.7969,628.6328 L248.7969,628.6328 C263.7969,628.6328 263.7969,561.8594 278.7969,561.8594 L288.7969,561.8594" fill="none" style="stroke:#181818;stroke-width:1;"/><rect fill="#F1F1F1" height="57.25" rx="12.5" ry="12.5" style="stroke:#181818;stroke-width:1.5;" width="180.0488" x="288.7969" y="608.1563"/><text fill="#000000" font-family="sans-serif" font-size="14" lengthAdjust="spacing" textLength="139.207" x="298.7969" y="631.1514">Neuer LLM-Anbieter</text><text fill="#000000" font-family="sans-serif" font-size="18" font-weight="bold" lengthAdjust="spacing" textLength="160.0488" x="298.7969" y="651.1611">eine neue Datei</text><path d="M238.7969,628.6328 L248.7969,628.6328 C263.7969,628.6328 263.7969,636.7813 278.7969,636.7813 L288.7969,636.7813" fill="none" style="stroke:#181818;stroke-width:1;"/><rect fill="#F1F1F1" height="36.2969" rx="12.5" ry="12.5" style="stroke:#181818;stroke-width:1.5;" width="186.7148" x="288.7969" y="685.4063"/><text fill="#000000" font-family="sans-serif" font-size="14" lengthAdjust="spacing" textLength="166.7148" x="298.7969" y="708.4014">91 automatisierte Tests</text><path d="M238.7969,628.6328 L248.7969,628.6328 C263.7969,628.6328 263.7969,703.5547 278.7969,703.5547 L288.7969,703.5547" fill="none" style="stroke:#181818;stroke-width:1;"/><path d="M85.8086,463.4453 L95.8086,463.4453 C110.8086,463.4453 110.8086,628.6328 125.8086,628.6328 L135.8086,628.6328" fill="none" style="stroke:#181818;stroke-width:1;"/><rect fill="#F1F1F1" height="36.2969" rx="12.5" ry="12.5" style="stroke:#181818;stroke-width:1.5;" width="118.123" x="135.8086" y="806.1484"/><text fill="#000000" font-family="sans-serif" font-size="14" lengthAdjust="spacing" textLength="98.123" x="145.8086" y="829.1436">Benutzbarkeit</text><rect fill="#F1F1F1" height="36.2969" rx="12.5" ry="12.5" style="stroke:#181818;stroke-width:1.5;" width="215.0703" x="303.9316" y="741.7031"/><text fill="#000000" font-family="sans-serif" font-size="14" lengthAdjust="spacing" textLength="195.0703" x="313.9316" y="764.6982">Kein manueller Bridge-Start</text><path d="M253.9316,824.2969 L263.9316,824.2969 C278.9316,824.2969 278.9316,759.8516 293.9316,759.8516 L303.9316,759.8516" fill="none" style="stroke:#181818;stroke-width:1;"/><rect fill="#F1F1F1" height="52.5938" rx="12.5" ry="12.5" style="stroke:#181818;stroke-width:1.5;" width="203.0801" x="303.9316" y="798"/><text fill="#000000" font-family="sans-serif" font-size="14" lengthAdjust="spacing" textLength="78.3672" x="313.9316" y="820.9951">Persistente</text><text fill="#000000" font-family="sans-serif" font-size="14" lengthAdjust="spacing" textLength="183.0801" x="313.9316" y="837.292">Verbindungseinstellungen</text><path d="M253.9316,824.2969 L263.9316,824.2969 C278.9316,824.2969 278.9316,824.2969 293.9316,824.2969 L303.9316,824.2969" fill="none" style="stroke:#181818;stroke-width:1;"/><rect fill="#F1F1F1" height="36.2969" rx="12.5" ry="12.5" style="stroke:#181818;stroke-width:1.5;" width="243.4258" x="303.9316" y="870.5938"/><text fill="#000000" font-family="sans-serif" font-size="14" lengthAdjust="spacing" textLength="223.4258" x="313.9316" y="893.5889">Verst&#228;ndliche Fehlermeldungen</text><path d="M253.9316,824.2969 L263.9316,824.2969 C278.9316,824.2969 278.9316,888.7422 293.9316,888.7422 L303.9316,888.7422" fill="none" style="stroke:#181818;stroke-width:1;"/><path d="M85.8086,463.4453 L95.8086,463.4453 C110.8086,463.4453 110.8086,824.2969 125.8086,824.2969 L135.8086,824.2969" fill="none" style="stroke:#181818;stroke-width:1;"/><?plantuml-src JLBHJXin47pFL-mZZUGq0RLIfIAHX5H5f92I2YIK5z_TtjtgxFN9zbM4x-5F-B6kVGNnPdbcl3FZlGXH-sY9AwlxoHH-3zfGV7s9a-aK7eU_wCthImZKT4ZfRWgtTMs8KQqmUiBYm2S_SV0K8dNWMaRORdzzoimxOHoXG8ATCw9fr0zi3NeMZTLFCpW3FTH8hBb2NplJ85UZT3b4f-wmTCnOHk7ZK-yOEH8QUG5MkknSNISoR5663znauRiNjR5zBUC4WE_m1Mp8k9XJ6zz9A3yYPp023rZiNTbXL5iTaPy5Min51IVRvKsUiwUoHT--zR3SNQbhF0OW2xVxT2nRJPonQmc5iBxV1B7ElPMS5KKuXtb-wK4gBxH_htJTQjkJO_NvAg9Lbyd0WNEPQrUXkiJUkAEL-9b-WuDKa98ikI2Cw0zy3daa2mH9JvdvRI6JexCwKY3q4U4FXfW2mmfvYCyVNIJJO3KF_olsL3Mezca_Chv37wHQSO47laTVoD98Xq5aScjIqpZ65p383d5bKcKm_hf5KusK2_dcjusRB6QdyzEliyK_?></g></svg>